<svg xmlns="http://www.w3.org/2000/svg" viewBox="0 0 1000 1000"><defs><style>.cls-1{fill:#ed6249;}.cls-2{fill:#f2bb57;}.cls-3{fill:#d8d9dd;}.cls-4{fill:#00662b;}.cls-5{fill:#008d2a;}.cls-6{fill:#00ab21;}.cls-7{fill:#7fc100;}.cls-35,.cls-56,.cls-57,.cls-60,.cls-8{fill:#fff;}.cls-9{fill:#271e5d;}.cls-10{fill:#282a85;}.cls-11{fill:#0072bb;}.cls-12{fill:#00aae3;}.cls-13{fill:#ff4d0e;}.cls-14{fill:#ff9200;}.cls-15{fill:#ffb21b;}.cls-16{fill:#ffea00;}.cls-17{fill:#460360;}.cls-18{fill:#741696;}.cls-19{fill:#a233e4;}.cls-20{fill:#d179ff;}.cls-21{fill:#171714;}.cls-22{fill:#d8e6f0;}.cls-23{fill:#f0f6fa;}.cls-24,.cls-26,.cls-28{fill:#4e83a6;}.cls-24,.cls-25{opacity:0.2;}.cls-27{fill:#2caecf;}.cls-28,.cls-35{opacity:0.6;}.cls-29{fill:#d0e5f2;}.cls-30{opacity:0.24;}.cls-31,.cls-32,.cls-38,.cls-39,.cls-40,.cls-41,.cls-42,.cls-43,.cls-44,.cls-45,.cls-46,.cls-47,.cls-48,.cls-49,.cls-50,.cls-51,.cls-52,.cls-53,.cls-54{fill:none;}.cls-31{stroke:#fafafa;stroke-width:0.5px;}.cls-31,.cls-32{stroke-miterlimit:10;}.cls-32{stroke:#f0f9fa;}.cls-33{fill:#113147;}.cls-34{fill:#ffc100;}.cls-36{fill:#29cdff;}.cls-37{fill:#ff3a1c;}.cls-38,.cls-39,.cls-40,.cls-41,.cls-42,.cls-43,.cls-44,.cls-45,.cls-46,.cls-47,.cls-48,.cls-49,.cls-50,.cls-51,.cls-52,.cls-53,.cls-54{stroke:#113147;stroke-linecap:round;stroke-linejoin:round;stroke-width:1.5px;}.cls-39{stroke-dasharray:0.99 3.95;}.cls-40{stroke-dasharray:0.98 3.91;}.cls-41{stroke-dasharray:1.01 4.03;}.cls-42{stroke-dasharray:1.01 4.03;}.cls-43{stroke-dasharray:1.01 4.04;}.cls-44{stroke-dasharray:0.98 3.91;}.cls-45{stroke-dasharray:1 4.01;}.cls-46{stroke-dasharray:1 4;}.cls-47{stroke-dasharray:1 3.99;}.cls-48{stroke-dasharray:1.02 4.08;}.cls-49{stroke-dasharray:0.99 3.97;}.cls-50{stroke-dasharray:0.95 3.81;}.cls-51{stroke-dasharray:0.96 3.82;}.cls-52{stroke-dasharray:1 4;}.cls-53{stroke-dasharray:1 4;}.cls-54{stroke-dasharray:1.03 4.11;}.cls-55{fill:#e34073;}.cls-56{font-size:72.02px;}.cls-56,.cls-57,.cls-60{font-family:OstrichSans-Black, Ostrich Sans;}.cls-57{font-size:79.8px;letter-spacing:-0.06em;}.cls-58{letter-spacing:0.02em;}.cls-59{letter-spacing:-0.06em;}.cls-60{font-size:59.46px;}</style></defs><title>Creative Event</title><g id="Layer_3" data-name="Layer 3"><path class="cls-1" d="M531.37,0H467.63C216.6,15.78,15.78,216.6,0,467.63v63.74C16.44,792.94,233.79,1000,499.5,1000c276.42,0,500.5-224.08,500.5-500.5C1000,233.79,792.94,16.44,531.37,0ZM500,849.07c-175.42,0-317.62-142.21-317.62-317.63S324.58,213.82,500,213.82,817.62,356,817.62,531.44,675.42,849.07,500,849.07Z"/><circle class="cls-2" cx="500" cy="531.44" r="317.62" transform="translate(-229.34 509.21) rotate(-45)"/></g><g id="Layer_4" data-name="Layer 4"><g id="_Group_" data-name="&lt;Group&gt;"><g id="_Group_2" data-name="&lt;Group&gt;"><g id="_Group_3" data-name="&lt;Group&gt;"><path id="_Path_" data-name="&lt;Path&gt;" class="cls-3" d="M798.55,601.87l37.32,46.33a3.06,3.06,0,0,0,4.3.46l135.69-109.3a3.07,3.07,0,0,0,.47-4.3L939,488.73a3.06,3.06,0,0,0-4.3-.46L799,597.57A3.07,3.07,0,0,0,798.55,601.87Z"/><rect id="_Path_2" data-name="&lt;Path&gt;" class="cls-4" x="926.97" y="497.44" width="29.84" height="54.33" transform="translate(-120.72 706.88) rotate(-38.85)"/><rect id="_Path_3" data-name="&lt;Path&gt;" class="cls-5" x="899.92" y="519.23" width="29.84" height="54.33" transform="translate(-140.37 694.73) rotate(-38.85)"/><rect id="_Path_4" data-name="&lt;Path&gt;" class="cls-6" x="872.87" y="541.02" width="29.84" height="54.33" transform="translate(-160.02 682.59) rotate(-38.85)"/><rect id="_Path_5" data-name="&lt;Path&gt;" class="cls-7" x="845.82" y="562.81" width="29.83" height="54.33" transform="translate(-179.67 670.46) rotate(-38.85)"/></g><g id="_Group_4" data-name="&lt;Group&gt;"><path id="_Path_6" data-name="&lt;Path&gt;" class="cls-8" d="M796,618.37l56.12,25a2.09,2.09,0,0,0,2.75-1.06l71.69-160.94a2.08,2.08,0,0,0-1-2.75l-56.12-25a2.1,2.1,0,0,0-2.76,1.06L795,615.61A2.09,2.09,0,0,0,796,618.37Z"/><rect id="_Rectangle_" data-name="&lt;Rectangle&gt;" class="cls-9" x="862.04" y="469.71" width="54.33" height="29.84" transform="translate(1504.27 1289.14) rotate(-155.99)"/><rect id="_Rectangle_2" data-name="&lt;Rectangle&gt;" class="cls-10" x="847.91" y="501.44" width="54.33" height="29.84" transform="translate(1464.32 1344.09) rotate(-155.99)"/><rect id="_Rectangle_3" data-name="&lt;Rectangle&gt;" class="cls-11" x="833.77" y="533.16" width="54.33" height="29.84" transform="translate(1424.37 1399.06) rotate(-155.99)"/><rect id="_Rectangle_4" data-name="&lt;Rectangle&gt;" class="cls-12" x="819.64" y="564.89" width="54.33" height="29.84" transform="translate(1384.42 1454.02) rotate(-155.99)"/></g><g id="_Group_5" data-name="&lt;Group&gt;"><path id="_Path_7" data-name="&lt;Path&gt;" class="cls-3" d="M803.12,634.56l59.4-3.25a3.07,3.07,0,0,0,2.89-3.22l-9.51-174a3.07,3.07,0,0,0-3.22-2.89l-59.4,3.25a3.07,3.07,0,0,0-2.89,3.22l9.51,174A3.07,3.07,0,0,0,803.12,634.56Z"/><rect id="_Path_8" data-name="&lt;Path&gt;" class="cls-13" x="796.92" y="458.16" width="54.33" height="29.84" transform="translate(-24.6 45.69) rotate(-3.13)"/><rect id="_Path_9" data-name="&lt;Path&gt;" class="cls-14" x="798.81" y="492.84" width="54.33" height="29.84" transform="translate(-26.49 45.85) rotate(-3.13)"/><rect id="_Path_10" data-name="&lt;Path&gt;" class="cls-15" x="800.71" y="527.53" width="54.33" height="29.84" transform="translate(-28.37 46) rotate(-3.13)"/><rect id="_Path_11" data-name="&lt;Path&gt;" class="cls-16" x="802.61" y="562.21" width="54.33" height="29.84" transform="translate(-30.27 46.16) rotate(-3.13)"/></g><g id="_Group_6" data-name="&lt;Group&gt;"><path id="_Path_12" data-name="&lt;Path&gt;" class="cls-8" d="M815.87,645.77l51.38-30a3.08,3.08,0,0,0,1.1-4.19L780.52,461.12a3.05,3.05,0,0,0-4.18-1.1L725,490a3.08,3.08,0,0,0-1.1,4.19l87.83,150.48A3.06,3.06,0,0,0,815.87,645.77Z"/><rect id="_Path_13" data-name="&lt;Path&gt;" class="cls-17" x="733.7" y="477.59" width="54.33" height="29.84" transform="matrix(0.86, -0.5, 0.5, 0.86, -144.52, 450.64)"/><rect id="_Path_14" data-name="&lt;Path&gt;" class="cls-18" x="751.21" y="507.59" width="54.33" height="29.84" transform="translate(-157.26 463.57) rotate(-30.27)"/><rect id="_Path_15" data-name="&lt;Path&gt;" class="cls-19" x="768.71" y="537.59" width="54.33" height="29.84" transform="translate(-169.99 476.48) rotate(-30.27)"/><rect id="_Path_16" data-name="&lt;Path&gt;" class="cls-20" x="786.22" y="567.59" width="54.33" height="29.84" transform="matrix(0.86, -0.5, 0.5, 0.86, -182.73, 489.4)"/></g><path id="_Path_17" data-name="&lt;Path&gt;" class="cls-21" d="M826.13,611.07a7,7,0,1,0,9.86,1.06A7,7,0,0,0,826.13,611.07Z"/></g></g></g><g id="Layer_2" data-name="Layer 2"><path class="cls-22" d="M248.31,664.5V380.19a15,15,0,0,1,15-15.06h441.3a15,15,0,0,1,15,15.06V664.5Z"/><path class="cls-23" d="M720.61,674H247.39c-13.37,0-24.21-13-24.21-29.13H744.82C744.82,661,734,674,720.61,674Z"/><path class="cls-24" d="M435.65,658.46a4.43,4.43,0,0,0,4.43,4.43h87.84a4.43,4.43,0,0,0,4.43-4.43h0a4.43,4.43,0,0,0-4.43-4.44H440.08a4.43,4.43,0,0,0-4.43,4.44Z"/><g class="cls-25"><path class="cls-26" d="M322,658.46a6,6,0,1,0,6-6A6,6,0,0,0,322,658.46Z"/><path class="cls-26" d="M294.65,658.46a6,6,0,1,0,6-6A6,6,0,0,0,294.65,658.46Z"/><path class="cls-26" d="M267.34,658.46a6,6,0,1,0,6-6A6,6,0,0,0,267.34,658.46Z"/></g><rect class="cls-27" x="263.89" y="390.13" width="440.21" height="241.82"/><ellipse class="cls-28" cx="484" cy="377.6" rx="7.85" ry="7.86"/><path class="cls-29" d="M481,377.6a3,3,0,1,0,3-3A3,3,0,0,0,481,377.6Z"/><g class="cls-30"><line class="cls-31" x1="682.78" y1="390.13" x2="682.78" y2="631.95"/><line class="cls-31" x1="659.4" y1="390.13" x2="659.4" y2="631.95"/><line class="cls-31" x1="636.01" y1="390.13" x2="636.01" y2="631.95"/><line class="cls-31" x1="612.62" y1="390.13" x2="612.62" y2="631.95"/><line class="cls-31" x1="589.24" y1="390.13" x2="589.24" y2="631.95"/><line class="cls-31" x1="565.85" y1="390.13" x2="565.85" y2="631.95"/><line class="cls-31" x1="542.47" y1="390.13" x2="542.47" y2="631.95"/><line class="cls-31" x1="519.08" y1="390.13" x2="519.08" y2="631.95"/><line class="cls-31" x1="495.69" y1="390.13" x2="495.69" y2="631.95"/><line class="cls-31" x1="472.31" y1="390.13" x2="472.31" y2="631.95"/><line class="cls-31" x1="448.92" y1="390.13" x2="448.92" y2="631.95"/><line class="cls-31" x1="425.53" y1="390.13" x2="425.53" y2="631.95"/><line class="cls-31" x1="402.15" y1="390.13" x2="402.15" y2="631.95"/><line class="cls-31" x1="378.76" y1="390.13" x2="378.76" y2="631.95"/><line class="cls-31" x1="355.38" y1="390.13" x2="355.38" y2="631.95"/><line class="cls-31" x1="331.99" y1="390.13" x2="331.99" y2="631.95"/><line class="cls-31" x1="308.6" y1="390.13" x2="308.6" y2="631.95"/><line class="cls-31" x1="285.22" y1="390.13" x2="285.22" y2="631.95"/><line class="cls-31" x1="703.79" y1="611.67" x2="264.21" y2="611.67"/><line class="cls-31" x1="703.79" y1="589.3" x2="264.21" y2="589.3"/><line class="cls-31" x1="703.79" y1="566.94" x2="264.21" y2="566.94"/><line class="cls-31" x1="703.79" y1="544.58" x2="264.21" y2="544.58"/><line class="cls-31" x1="703.79" y1="522.22" x2="264.21" y2="522.22"/><line class="cls-31" x1="703.79" y1="499.86" x2="264.21" y2="499.86"/><line class="cls-31" x1="703.79" y1="477.5" x2="264.21" y2="477.5"/><line class="cls-31" x1="703.79" y1="455.13" x2="264.21" y2="455.13"/><line class="cls-31" x1="703.79" y1="432.77" x2="264.21" y2="432.77"/><line class="cls-31" x1="703.79" y1="410.41" x2="264.21" y2="410.41"/></g><rect class="cls-32" x="331.99" y="410.41" width="304.02" height="22.36"/><rect class="cls-32" x="332" y="589.3" width="304.01" height="22.36"/><rect class="cls-32" x="331.99" y="432.77" width="304.02" height="89.45"/><rect class="cls-32" x="542.47" y="522.22" width="93.54" height="67.08"/><rect class="cls-32" x="425.53" y="522.22" width="116.94" height="67.08"/><rect class="cls-32" x="331.99" y="522.22" width="93.54" height="67.08"/><rect class="cls-23" x="486.46" y="469.22" width="56.09" height="3.97"/><rect class="cls-23" x="545.82" y="469.22" width="10.28" height="3.97"/><rect class="cls-23" x="563.35" y="469.22" width="25.94" height="3.97"/><rect class="cls-23" x="486.46" y="461.85" width="17.76" height="3.97"/><rect class="cls-23" x="508.9" y="461.85" width="73.16" height="3.97"/><rect class="cls-23" x="586.96" y="461.85" width="21.74" height="3.97"/><rect class="cls-23" x="486.46" y="454.49" width="29.45" height="3.97"/><rect class="cls-23" x="519.41" y="454.49" width="10.99" height="3.97"/><rect class="cls-23" x="533.67" y="454.49" width="21.04" height="3.97"/><path class="cls-23" d="M481.49,456.2a1.52,1.52,0,1,1-1.51-1.52A1.52,1.52,0,0,1,481.49,456.2Z"/><path class="cls-23" d="M481.49,463.87a1.52,1.52,0,1,1-1.51-1.51A1.52,1.52,0,0,1,481.49,463.87Z"/><path class="cls-23" d="M481.49,471.55A1.52,1.52,0,1,1,480,470,1.51,1.51,0,0,1,481.49,471.55Z"/><rect class="cls-23" x="486.46" y="497.52" width="32.72" height="3.97"/><rect class="cls-23" x="523.39" y="497.52" width="43.47" height="3.97"/><rect class="cls-23" x="572" y="497.52" width="18.7" height="3.97"/><rect class="cls-23" x="486.46" y="490.39" width="27.58" height="3.97"/><rect class="cls-23" x="517.91" y="490.39" width="33.19" height="3.97"/><rect class="cls-23" x="554.71" y="490.39" width="19.4" height="3.97"/><rect class="cls-23" x="486.46" y="483.26" width="9.58" height="3.97"/><rect class="cls-23" x="499.78" y="483.26" width="27.35" height="3.97"/><path class="cls-23" d="M481.49,484.76a1.52,1.52,0,1,1-1.51-1.51A1.52,1.52,0,0,1,481.49,484.76Z"/><path class="cls-23" d="M481.49,492.44a1.52,1.52,0,1,1-1.51-1.51A1.51,1.51,0,0,1,481.49,492.44Z"/><path class="cls-23" d="M481.49,500.12a1.52,1.52,0,1,1-1.51-1.51A1.52,1.52,0,0,1,481.49,500.12Z"/><rect class="cls-23" x="353.79" y="561.32" width="28.01" height="3.97"/><rect class="cls-23" x="383.43" y="561.32" width="5.13" height="3.97"/><rect class="cls-23" x="392.18" y="561.32" width="12.95" height="3.97"/><rect class="cls-23" x="353.79" y="553.96" width="8.87" height="3.97"/><rect class="cls-23" x="364.99" y="553.96" width="36.53" height="3.97"/><rect class="cls-23" x="403.97" y="553.96" width="10.85" height="3.97"/><rect class="cls-23" x="353.79" y="546.6" width="14.7" height="3.97"/><rect class="cls-23" x="370.24" y="546.6" width="5.49" height="3.97"/><rect class="cls-23" x="377.36" y="546.6" width="10.5" height="3.97"/><path class="cls-23" d="M348.82,548.3a1.52,1.52,0,1,1-1.51-1.51A1.51,1.51,0,0,1,348.82,548.3Z"/><path class="cls-23" d="M348.82,556a1.52,1.52,0,1,1-1.51-1.51A1.52,1.52,0,0,1,348.82,556Z"/><circle class="cls-23" cx="347.31" cy="563.66" r="1.51"/><rect class="cls-33" x="493.59" y="297.77" width="343.93" height="35.28"/><rect class="cls-34" x="510.43" y="306.88" width="17.06" height="17.06" rx="3.78" ry="3.78"/><path class="cls-35" d="M594.67,313a.74.74,0,0,1-.75.74H533.61a.74.74,0,0,1-.75-.74h0a.74.74,0,0,1,.75-.75h60.31a.74.74,0,0,1,.75.75Z"/><path class="cls-35" d="M572.78,317.82a.76.76,0,0,1-.75.75H533.61a.75.75,0,0,1-.75-.75h0a.74.74,0,0,1,.75-.75H572a.75.75,0,0,1,.75.75Z"/><path class="cls-36" d="M774.75,316.58a6.21,6.21,0,1,1-6.21-6.21A6.21,6.21,0,0,1,774.75,316.58Z"/><path class="cls-34" d="M793.88,316.58a6.21,6.21,0,1,1-6.21-6.21A6.21,6.21,0,0,1,793.88,316.58Z"/><path class="cls-37" d="M813,316.58a6.21,6.21,0,1,1-6.21-6.21A6.21,6.21,0,0,1,813,316.58Z"/><rect class="cls-33" x="128.13" y="706.85" width="343.93" height="56.99"/><path class="cls-36" d="M181.1,736.81A13.8,13.8,0,1,1,167.3,723,13.8,13.8,0,0,1,181.1,736.81Z"/><path class="cls-37" d="M219.15,736.81a13.81,13.81,0,1,1-13.8-13.8A13.8,13.8,0,0,1,219.15,736.81Z"/><path class="cls-34" d="M257.19,736.81a13.8,13.8,0,1,1-13.8-13.8A13.8,13.8,0,0,1,257.19,736.81Z"/><rect class="cls-34" x="388.72" y="736.18" width="14.43" height="14.43"/><rect class="cls-37" x="410.91" y="736.18" width="14.43" height="14.43"/><rect class="cls-36" x="433.1" y="736.18" width="14.43" height="14.43"/><path class="cls-35" d="M448,724a.91.91,0,0,1-.91.91H389.63a.91.91,0,0,1-.91-.91h0a.91.91,0,0,1,.91-.91h57.45a.91.91,0,0,1,.91.91Z"/><path class="cls-35" d="M448,728.52a.92.92,0,0,1-.91.92H389.63a.92.92,0,0,1-.91-.92h0a.91.91,0,0,1,.91-.91h57.45a.91.91,0,0,1,.91.91Z"/><path class="cls-33" d="M571.53,421.19a5.68,5.68,0,1,1-5.68-5.69A5.68,5.68,0,0,1,571.53,421.19Z"/><path class="cls-33" d="M454.61,477.17a5.69,5.69,0,1,1-5.68-5.69A5.68,5.68,0,0,1,454.61,477.17Z"/><path class="cls-33" d="M490.75,556a5.69,5.69,0,1,1-5.69-5.69A5.68,5.68,0,0,1,490.75,556Z"/><path class="cls-33" d="M408.32,601.46a5.68,5.68,0,1,1-5.68-5.68A5.68,5.68,0,0,1,408.32,601.46Z"/><line class="cls-38" x1="565.85" y1="421.19" x2="566.35" y2="421.19"/><line class="cls-39" x1="570.3" y1="421.19" x2="672.08" y2="421.19"/><polyline class="cls-38" points="674.05 421.19 674.55 421.19 674.55 420.69"/><line class="cls-40" x1="674.55" y1="416.78" x2="674.55" y2="330.8"/><line class="cls-38" x1="674.55" y1="328.84" x2="674.55" y2="328.34"/><line class="cls-38" x1="462.74" y1="234" x2="463.24" y2="234"/><line class="cls-41" x1="467.27" y1="234" x2="672.04" y2="234"/><polyline class="cls-38" points="674.05 234 674.55 234 674.55 234.5"/><line class="cls-42" x1="674.55" y1="238.53" x2="674.55" y2="302.07"/><line class="cls-38" x1="674.55" y1="304.09" x2="674.55" y2="304.59"/><line class="cls-38" x1="485.06" y1="555.95" x2="485.56" y2="555.95"/><line class="cls-43" x1="489.6" y1="555.95" x2="755.01" y2="555.95"/><polyline class="cls-38" points="757.02 555.95 757.52 555.95 757.52 556.45"/><line class="cls-44" x1="757.53" y1="560.36" x2="757.53" y2="602.4"/><line class="cls-38" x1="757.53" y1="604.36" x2="757.53" y2="604.86"/><line class="cls-38" x1="702.42" y1="807.56" x2="702.92" y2="807.56"/><line class="cls-45" x1="706.92" y1="807.56" x2="755.02" y2="807.56"/><polyline class="cls-38" points="757.02 807.56 757.52 807.56 757.52 807.06"/><line class="cls-46" x1="757.53" y1="803.05" x2="757.53" y2="714.98"/><line class="cls-38" x1="757.53" y1="712.98" x2="757.53" y2="712.48"/><line class="cls-38" x1="403.15" y1="601.46" x2="402.65" y2="601.46"/><line class="cls-47" x1="398.66" y1="601.46" x2="315.95" y2="601.46"/><polyline class="cls-38" points="313.95 601.46 313.45 601.46 313.45 601.96"/><line class="cls-48" x1="313.45" y1="606.04" x2="313.45" y2="705.99"/><line class="cls-38" x1="313.45" y1="708.03" x2="313.45" y2="708.53"/><line class="cls-38" x1="511.99" y1="807.56" x2="511.49" y2="807.56"/><line class="cls-49" x1="507.52" y1="807.56" x2="315.94" y2="807.56"/><polyline class="cls-38" points="313.95 807.56 313.45 807.56 313.45 807.06"/><line class="cls-50" x1="313.45" y1="803.24" x2="313.45" y2="762.26"/><line class="cls-38" x1="313.45" y1="760.36" x2="313.45" y2="759.86"/><line class="cls-38" x1="178.61" y1="434.46" x2="178.61" y2="434.96"/><line class="cls-51" x1="178.61" y1="438.78" x2="178.61" y2="475.09"/><polyline class="cls-38" points="178.61 477 178.61 477.5 179.11 477.5"/><line class="cls-52" x1="183.11" y1="477.5" x2="435.84" y2="477.5"/><line class="cls-38" x1="437.84" y1="477.5" x2="438.34" y2="477.5"/><line class="cls-38" x1="178.62" y1="368.27" x2="178.62" y2="367.77"/><line class="cls-53" x1="178.62" y1="363.77" x2="178.62" y2="235.92"/><polyline class="cls-38" points="178.62 233.92 178.62 233.42 179.12 233.42"/><line class="cls-54" x1="183.22" y1="233.42" x2="268.41" y2="233.42"/><line class="cls-38" x1="270.46" y1="233.42" x2="270.96" y2="233.42"/><rect class="cls-33" x="498.92" y="756.21" width="217.28" height="95.79"/><rect class="cls-33" x="257.66" y="189.42" width="217.28" height="95.79"/><rect class="cls-36" x="295.33" y="242.64" width="13.5" height="4.78"/><rect class="cls-34" x="295.33" y="261.2" width="35.43" height="4.78"/><rect class="cls-37" x="336.11" y="261.2" width="55.68" height="4.78"/><rect class="cls-36" x="397.7" y="261.2" width="47.25" height="4.78"/><rect class="cls-37" x="295.33" y="251.92" width="23.06" height="4.78"/><rect class="cls-36" x="324.3" y="251.92" width="43.31" height="4.78"/><rect class="cls-34" x="373.23" y="251.92" width="25.59" height="4.78"/><rect class="cls-37" x="313.33" y="242.64" width="33.18" height="4.78"/><rect class="cls-37" x="295.33" y="226.51" width="77.05" height="4.78"/><rect class="cls-36" x="378.29" y="226.51" width="17.44" height="4.78"/><rect class="cls-34" x="295.33" y="217.58" width="23.06" height="4.78"/><rect class="cls-37" x="324.3" y="217.58" width="91.4" height="4.78"/><rect class="cls-36" x="418.51" y="217.58" width="39.37" height="4.78"/><rect class="cls-37" x="295.33" y="208.65" width="33.75" height="4.78"/><rect class="cls-36" x="334.99" y="208.65" width="14.34" height="4.78"/><rect class="cls-34" x="352.98" y="208.65" width="31.22" height="4.78"/><path class="cls-23" d="M278.36,210.7a1.82,1.82,0,1,1-1.82-1.82A1.82,1.82,0,0,1,278.36,210.7Z"/><path class="cls-23" d="M278.36,219.93a1.82,1.82,0,1,1-1.82-1.81A1.81,1.81,0,0,1,278.36,219.93Z"/><path class="cls-23" d="M278.36,229.17a1.82,1.82,0,1,1-1.82-1.82A1.81,1.81,0,0,1,278.36,229.17Z"/><path class="cls-23" d="M278.36,245.07a1.82,1.82,0,1,1-1.82-1.82A1.82,1.82,0,0,1,278.36,245.07Z"/><path class="cls-23" d="M278.36,254.31a1.82,1.82,0,1,1-1.82-1.82A1.82,1.82,0,0,1,278.36,254.31Z"/><path class="cls-23" d="M278.36,263.54a1.82,1.82,0,1,1-1.82-1.82A1.81,1.81,0,0,1,278.36,263.54Z"/><rect class="cls-34" x="544.33" y="793.47" width="67.49" height="4.78"/><rect class="cls-37" x="615.76" y="793.47" width="12.37" height="4.78"/><rect class="cls-36" x="636.85" y="793.47" width="31.22" height="4.78"/><rect class="cls-36" x="544.33" y="784.61" width="21.37" height="4.78"/><rect class="cls-37" x="571.32" y="784.61" width="88.02" height="4.78"/><rect class="cls-34" x="665.25" y="784.61" width="26.15" height="4.78"/><rect class="cls-37" x="544.33" y="775.75" width="35.43" height="4.78"/><rect class="cls-36" x="583.98" y="775.75" width="13.22" height="4.78"/><rect class="cls-34" x="601.13" y="775.75" width="25.31" height="4.78"/><path class="cls-23" d="M527.35,777.8a1.82,1.82,0,1,1-1.82-1.82A1.82,1.82,0,0,1,527.35,777.8Z"/><path class="cls-23" d="M527.35,787a1.82,1.82,0,1,1-1.82-1.82A1.82,1.82,0,0,1,527.35,787Z"/><path class="cls-23" d="M527.35,796.27a1.82,1.82,0,1,1-1.82-1.82A1.81,1.81,0,0,1,527.35,796.27Z"/><rect class="cls-34" x="544.33" y="827.52" width="39.37" height="4.78"/><rect class="cls-37" x="588.76" y="827.52" width="52.31" height="4.78"/><rect class="cls-36" x="647.25" y="827.52" width="22.5" height="4.78"/><rect class="cls-36" x="544.33" y="818.94" width="33.18" height="4.78"/><rect class="cls-34" x="582.17" y="818.94" width="39.93" height="4.78"/><rect class="cls-37" x="626.44" y="818.94" width="23.34" height="4.78"/><rect class="cls-34" x="544.33" y="810.36" width="11.53" height="4.78"/><rect class="cls-37" x="560.36" y="810.36" width="32.9" height="4.78"/><path class="cls-23" d="M527.35,812.17a1.82,1.82,0,1,1-1.82-1.82A1.81,1.81,0,0,1,527.35,812.17Z"/><path class="cls-23" d="M527.35,821.41a1.82,1.82,0,1,1-1.82-1.82A1.82,1.82,0,0,1,527.35,821.41Z"/><path class="cls-23" d="M527.35,830.65a1.82,1.82,0,1,1-1.82-1.82A1.81,1.81,0,0,1,527.35,830.65Z"/><rect class="cls-33" x="582.09" y="600.86" width="343.93" height="116.8"/><path class="cls-35" d="M901.23,686.46a.92.92,0,0,1-.92.92H810a.92.92,0,0,1-.91-.92h0a.91.91,0,0,1,.91-.91h90.34a.92.92,0,0,1,.92.91Z"/><path class="cls-35" d="M901.23,693a.92.92,0,0,1-.92.91H810a.91.91,0,0,1-.91-.91h0a.92.92,0,0,1,.91-.92h90.34a.92.92,0,0,1,.92.92Z"/><path class="cls-35" d="M870.08,699.59a.92.92,0,0,1-.91.92H810a.92.92,0,0,1-.91-.92h0a.91.91,0,0,1,.91-.91h59.2a.91.91,0,0,1,.91.91Z"/><rect class="cls-37" x="809.06" y="618.02" width="91.93" height="60.3"/><path class="cls-35" d="M800.05,686.46a.92.92,0,0,1-.91.92H708.8a.92.92,0,0,1-.92-.92h0a.92.92,0,0,1,.92-.91h90.34a.91.91,0,0,1,.91.91Z"/><path class="cls-35" d="M800.05,693a.91.91,0,0,1-.91.91H708.8a.92.92,0,0,1-.92-.91h0a.92.92,0,0,1,.92-.92h90.34a.92.92,0,0,1,.91.92Z"/><path class="cls-35" d="M768.9,699.59a.91.91,0,0,1-.91.92H708.8a.92.92,0,0,1-.92-.92h0a.92.92,0,0,1,.92-.91H768a.91.91,0,0,1,.91.91Z"/><rect class="cls-34" x="707.88" y="618.02" width="91.93" height="60.3"/><rect class="cls-8" x="606.82" y="618.16" width="91.93" height="60.3"/><rect class="cls-36" x="610.83" y="621.65" width="83.92" height="53.32"/><path class="cls-8" d="M698.76,688.3a2.91,2.91,0,0,1-2.92,2.91h-86.1a2.91,2.91,0,0,1-2.92-2.91h0a2.92,2.92,0,0,1,2.92-2.92h86.1a2.92,2.92,0,0,1,2.92,2.92Z"/><path class="cls-8" d="M666,648.31a12.64,12.64,0,1,1-12.64-12.64A12.64,12.64,0,0,1,666,648.31Z"/><polygon class="cls-33" points="649.56 642.85 649.56 653.77 659.85 648.31 649.56 642.85"/><rect class="cls-33" x="41.97" y="328.19" width="343.93" height="110.43"/><polygon class="cls-8" points="62.95 383.4 69.28 389.86 69.28 376.95 62.95 383.4"/><rect class="cls-34" x="78.09" y="343.16" width="139.1" height="80.49"/><rect class="cls-36" x="228.28" y="411.56" width="12.39" height="12.09"/><polygon class="cls-8" points="365 383.4 358.67 389.86 358.67 376.95 365 383.4"/><path class="cls-35" d="M337.55,360.51a.91.91,0,0,1-.91.91H229.19a.91.91,0,0,1-.91-.91h0a.92.92,0,0,1,.91-.92H336.64a.92.92,0,0,1,.91.92Z"/><path class="cls-35" d="M337.55,367.07a.91.91,0,0,1-.91.91H229.19a.91.91,0,0,1-.91-.91h0a.91.91,0,0,1,.91-.91H336.64a.91.91,0,0,1,.91.91Z"/><path class="cls-35" d="M337.55,373.63a.92.92,0,0,1-.91.92H229.19a.92.92,0,0,1-.91-.92h0a.91.91,0,0,1,.91-.91H336.64a.91.91,0,0,1,.91.91Z"/><path class="cls-35" d="M337.55,380.2a.91.91,0,0,1-.91.91H229.19a.91.91,0,0,1-.91-.91h0a.91.91,0,0,1,.91-.91H336.64a.91.91,0,0,1,.91.91Z"/><path class="cls-35" d="M337.55,386.76a.92.92,0,0,1-.91.92H229.19a.92.92,0,0,1-.91-.92h0a.91.91,0,0,1,.91-.91H336.64a.91.91,0,0,1,.91.91Z"/><path class="cls-35" d="M301,393.33a.91.91,0,0,1-.91.91H229.19a.91.91,0,0,1-.91-.91h0a.91.91,0,0,1,.91-.91h70.88a.91.91,0,0,1,.91.91Z"/><path class="cls-8" d="M337.55,347.28a4.12,4.12,0,0,1-4.12,4.12h-101a4.13,4.13,0,0,1-4.12-4.12h0a4.12,4.12,0,0,1,4.12-4.12h101a4.11,4.11,0,0,1,4.12,4.12Z"/><rect class="cls-37" x="245.7" y="411.56" width="59.32" height="12.09"/></g><g id="Layer_5" data-name="Layer 5"><circle class="cls-55" cx="346.4" cy="852.22" r="72.79"/><text class="cls-56" transform="translate(303.84 878.24)">CSS</text><circle class="cls-55" cx="711.34" cy="175.87" r="93.66"/><text class="cls-57" transform="translate(647.6 204.2)">ht<tspan class="cls-58" x="59.85" y="0">m</tspan><tspan class="cls-59" x="104.38" y="0">l</tspan></text><circle class="cls-55" cx="147.81" cy="513.81" r="63.19"/><text class="cls-60" transform="translate(116.32 534.66)">PHP</text></g></svg>