<svg xmlns="http://www.w3.org/2000/svg" xmlns:xlink="http://www.w3.org/1999/xlink" viewBox="0 0 1000 1000"><defs><style>.cls-1{fill:#1a1a1a;}.cls-2{fill:#bd1b52;}.cls-3{fill:#1f6bab;}.cls-4{fill:#b87613;}.cls-5{fill:#298f2e;}.cls-6{fill:url(#radial-gradient);}.cls-7{fill:url(#radial-gradient-2);}.cls-8{fill:url(#radial-gradient-3);}.cls-9{fill:url(#radial-gradient-4);}.cls-10{fill:url(#radial-gradient-5);}.cls-11{fill:url(#radial-gradient-6);}.cls-12{fill:url(#radial-gradient-7);}.cls-13{fill:url(#radial-gradient-8);}.cls-14{fill:url(#radial-gradient-9);}.cls-15{fill:url(#radial-gradient-10);}.cls-16{fill:url(#radial-gradient-11);}.cls-17{fill:url(#radial-gradient-12);}.cls-18{fill:url(#radial-gradient-13);}.cls-19{fill:url(#radial-gradient-14);}.cls-20,.cls-21{fill:none;stroke:#fff;stroke-width:2px;}.cls-20{stroke-miterlimit:10;}.cls-21{stroke-linecap:round;stroke-linejoin:round;}.cls-22{fill:url(#radial-gradient-15);}.cls-23{fill:#1c1d21;}</style><radialGradient id="radial-gradient" cx="654.33" cy="260.09" r="174.48" gradientUnits="userSpaceOnUse"><stop offset="0" stop-color="#ff77a2"/><stop offset="0.85" stop-color="#e81d62"/><stop offset="0.92" stop-color="#e9296a"/><stop offset="1" stop-color="#eb407a"/></radialGradient><radialGradient id="radial-gradient-2" cx="346.36" cy="568.61" r="174.35" gradientUnits="userSpaceOnUse"><stop offset="0" stop-color="#5ec3f8"/><stop offset="0.85" stop-color="#2884f5"/><stop offset="0.91" stop-color="#348ff6"/><stop offset="1" stop-color="#4fa7f7"/></radialGradient><radialGradient id="radial-gradient-3" cx="654.82" cy="567.58" r="175.23" gradientTransform="translate(655.25 -271.48) rotate(45)" gradientUnits="userSpaceOnUse"><stop offset="0" stop-color="#ffe082"/><stop offset="0.85" stop-color="#fec007"/><stop offset="0.92" stop-color="#fec313"/><stop offset="1" stop-color="#fec928"/></radialGradient><radialGradient id="radial-gradient-4" cx="344.64" cy="259.85" r="174.16" gradientUnits="userSpaceOnUse"><stop offset="0" stop-color="#80d870"/><stop offset="0.85" stop-color="#349c3b"/><stop offset="0.92" stop-color="#3ea841"/><stop offset="1" stop-color="#4eba4a"/></radialGradient><radialGradient id="radial-gradient-5" cx="341.43" cy="534.1" r="306.87" gradientUnits="userSpaceOnUse"><stop offset="0" stop-color="blue"/><stop offset="0.08" stop-color="blue" stop-opacity="0.89"/><stop offset="0.27" stop-color="blue" stop-opacity="0.62"/><stop offset="0.46" stop-color="blue" stop-opacity="0.4"/><stop offset="0.63" stop-color="blue" stop-opacity="0.23"/><stop offset="0.78" stop-color="blue" stop-opacity="0.1"/><stop offset="0.91" stop-color="blue" stop-opacity="0.03"/><stop offset="1" stop-color="blue" stop-opacity="0"/></radialGradient><radialGradient id="radial-gradient-6" cx="535.08" cy="350.97" r="281.65" gradientUnits="userSpaceOnUse"><stop offset="0" stop-color="#21daff"/><stop offset="0.08" stop-color="#21deff" stop-opacity="0.89"/><stop offset="0.27" stop-color="#21e8ff" stop-opacity="0.62"/><stop offset="0.46" stop-color="#21f0ff" stop-opacity="0.4"/><stop offset="0.63" stop-color="#21f7ff" stop-opacity="0.23"/><stop offset="0.78" stop-color="#21fbff" stop-opacity="0.1"/><stop offset="0.91" stop-color="#21feff" stop-opacity="0.03"/><stop offset="1" stop-color="#21ffff" stop-opacity="0"/></radialGradient><radialGradient id="radial-gradient-7" cx="467.72" cy="349.92" r="288.03" gradientUnits="userSpaceOnUse"><stop offset="0" stop-color="#ffc100"/><stop offset="0.08" stop-color="#ffc200" stop-opacity="0.89"/><stop offset="0.27" stop-color="#ffc400" stop-opacity="0.62"/><stop offset="0.46" stop-color="#ffc600" stop-opacity="0.4"/><stop offset="0.63" stop-color="#ffc700" stop-opacity="0.23"/><stop offset="0.78" stop-color="#ffc800" stop-opacity="0.1"/><stop offset="0.91" stop-color="#ffc900" stop-opacity="0.03"/><stop offset="1" stop-color="#ffc900" stop-opacity="0"/></radialGradient><radialGradient id="radial-gradient-8" cx="649.26" cy="467.27" r="204.84" gradientTransform="translate(-74.47) scale(1.14 1)" gradientUnits="userSpaceOnUse"><stop offset="0" stop-color="blue"/><stop offset="0.25" stop-color="blue" stop-opacity="0.76"/><stop offset="0.84" stop-color="blue" stop-opacity="0.17"/><stop offset="1" stop-color="blue" stop-opacity="0"/></radialGradient><radialGradient id="radial-gradient-9" cx="342.25" cy="466.63" r="229.07" gradientUnits="userSpaceOnUse"><stop offset="0" stop-color="lime"/><stop offset="0.06" stop-color="lime" stop-opacity="0.87"/><stop offset="0.16" stop-color="lime" stop-opacity="0.67"/><stop offset="0.26" stop-color="lime" stop-opacity="0.49"/><stop offset="0.37" stop-color="lime" stop-opacity="0.34"/><stop offset="0.48" stop-color="lime" stop-opacity="0.22"/><stop offset="0.59" stop-color="lime" stop-opacity="0.12"/><stop offset="0.71" stop-color="lime" stop-opacity="0.05"/><stop offset="0.84" stop-color="lime" stop-opacity="0.01"/><stop offset="1" stop-color="lime" stop-opacity="0"/></radialGradient><radialGradient id="radial-gradient-10" cx="652.96" cy="530.94" r="311.09" gradientUnits="userSpaceOnUse"><stop offset="0" stop-color="#f0f"/><stop offset="0.02" stop-color="#f0f" stop-opacity="0.97"/><stop offset="0.13" stop-color="#f0f" stop-opacity="0.74"/><stop offset="0.25" stop-color="#f0f" stop-opacity="0.54"/><stop offset="0.37" stop-color="#f0f" stop-opacity="0.38"/><stop offset="0.49" stop-color="#f0f" stop-opacity="0.24"/><stop offset="0.62" stop-color="#f0f" stop-opacity="0.13"/><stop offset="0.74" stop-color="#f0f" stop-opacity="0.06"/><stop offset="0.87" stop-color="#f0f" stop-opacity="0.01"/><stop offset="1" stop-color="#f0f" stop-opacity="0"/></radialGradient><radialGradient id="radial-gradient-11" cx="343.25" cy="462.65" r="309.61" xlink:href="#radial-gradient-10"/><radialGradient id="radial-gradient-12" cx="531.63" cy="648.07" r="303.79" gradientUnits="userSpaceOnUse"><stop offset="0" stop-color="lime"/><stop offset="0.08" stop-color="lime" stop-opacity="0.89"/><stop offset="0.27" stop-color="lime" stop-opacity="0.62"/><stop offset="0.46" stop-color="lime" stop-opacity="0.4"/><stop offset="0.63" stop-color="lime" stop-opacity="0.23"/><stop offset="0.78" stop-color="lime" stop-opacity="0.1"/><stop offset="0.91" stop-color="lime" stop-opacity="0.03"/><stop offset="1" stop-color="lime" stop-opacity="0"/></radialGradient><radialGradient id="radial-gradient-13" cx="662.17" cy="464.13" r="299.36" xlink:href="#radial-gradient-6"/><radialGradient id="radial-gradient-14" cx="473.78" cy="648.07" r="299.1" gradientUnits="userSpaceOnUse"><stop offset="0" stop-color="#ffd600"/><stop offset="0.08" stop-color="#ffd000" stop-opacity="0.89"/><stop offset="0.27" stop-color="#ffc300" stop-opacity="0.62"/><stop offset="0.46" stop-color="#ffb800" stop-opacity="0.4"/><stop offset="0.63" stop-color="#ffaf00" stop-opacity="0.23"/><stop offset="0.78" stop-color="#ffa900" stop-opacity="0.1"/><stop offset="0.91" stop-color="orange" stop-opacity="0.03"/><stop offset="1" stop-color="#ffa400" stop-opacity="0"/></radialGradient><radialGradient id="radial-gradient-15" cx="501.85" cy="379.37" r="241.16" gradientUnits="userSpaceOnUse"><stop offset="0" stop-color="#999"/><stop offset="0.71" stop-color="#4d4d4d"/><stop offset="0.78" stop-color="#595959"/><stop offset="0.9" stop-color="#787878"/><stop offset="1" stop-color="#999"/></radialGradient></defs><title>Gamedrome</title><g id="Layer_3" data-name="Layer 3"><path class="cls-1" d="M531.37,0H467.63C216.6,15.78,15.78,216.6,0,467.63v63.74C16.44,792.94,233.79,1000,499.5,1000c276.42,0,500.5-224.08,500.5-500.5C1000,233.79,792.94,16.44,531.37,0Z"/></g><g id="Layer_1" data-name="Layer 1"><path class="cls-2" d="M717.34,412.86a87.69,87.69,0,1,1,0-124A87.68,87.68,0,0,1,717.34,412.86Z"/><path class="cls-3" d="M409.05,721.15a87.69,87.69,0,1,1,0-124A87.7,87.7,0,0,1,409.05,721.15Z"/><circle class="cls-4" cx="655.33" cy="659.14" r="87.69" transform="translate(-274.14 656.45) rotate(-45)"/><path class="cls-5" d="M285,412.86a87.69,87.69,0,1,1,124,0A87.7,87.7,0,0,1,285,412.86Z"/><path d="M536.79,467V397.45A14.43,14.43,0,0,0,522.35,383H478a14.44,14.44,0,0,0-14.44,14.44V467H394a14.44,14.44,0,0,0-14.44,14.44v44.35A14.44,14.44,0,0,0,394,540.23h69.55v69.56A14.45,14.45,0,0,0,478,624.23h44.35a14.44,14.44,0,0,0,14.44-14.44V540.23h69.56a14.44,14.44,0,0,0,14.43-14.44V481.44A14.44,14.44,0,0,0,606.35,467Z"/><path class="cls-6" d="M717.34,408.94a87.69,87.69,0,1,1,0-124A87.7,87.7,0,0,1,717.34,408.94Z"/><path class="cls-7" d="M409.05,717.23a87.69,87.69,0,1,1,0-124A87.7,87.7,0,0,1,409.05,717.23Z"/><circle class="cls-8" cx="655.33" cy="655.22" r="87.69" transform="translate(-271.37 655.3) rotate(-45)"/><path class="cls-9" d="M285,408.94a87.69,87.69,0,1,1,124,0A87.7,87.7,0,0,1,285,408.94Z"/><path class="cls-10" d="M140.38,327.69v8c0,107.91,87.79,195.7,195.7,195.7h6V467.81h-6C263.24,467.81,204,408.55,204,335.72v-8a131.59,131.59,0,0,1,36.73-91.25l-45-45A195,195,0,0,0,140.38,327.69Z"/><path class="cls-11" d="M531.77,349.77V327.69C531.77,219.79,444,132,336.08,132a195.12,195.12,0,0,0-140.32,59.48l45,45a131.69,131.69,0,0,1,95.36-40.83c72.83,0,132.08,59.25,132.08,132.08v22.08Z"/><path class="cls-12" d="M664.21,132.37c-107.9,0-195.69,87.79-195.69,195.7v22.07h63.61V328.07c0-72.84,59.25-132.09,132.08-132.09a131.68,131.68,0,0,1,94.42,39.85l45-45A195.07,195.07,0,0,0,664.21,132.37Z"/><rect class="cls-13" x="657.9" y="468.04" width="302.76" height="63.74"/><rect class="cls-14" x="39.34" y="468.04" width="302.76" height="63.74"/><path class="cls-15" d="M758.63,235.83a131.61,131.61,0,0,1,37.67,92.24v8c0,72.84-59.26,132.09-132.09,132.09h-6v63.61h6c107.91,0,195.7-87.79,195.7-195.7v-8a195,195,0,0,0-56.32-137.2Z"/><path class="cls-16" d="M204,672.31v-8c0-72.83,59.25-132.09,132.09-132.09h6V468.58h-6c-107.91,0-195.7,87.79-195.7,195.7v8a194.93,194.93,0,0,0,52,132.61l45-45A131.5,131.5,0,0,1,204,672.31Z"/><path class="cls-17" d="M468.16,650.23v22.08c0,72.83-59.25,132.08-132.08,132.08a131.78,131.78,0,0,1-98.74-44.48l-45,45A195.2,195.2,0,0,0,336.08,868C444,868,531.77,780.21,531.77,672.31V650.23Z"/><path class="cls-18" d="M859.91,671.93v-8c0-107.91-87.79-195.7-195.7-195.7h-6v63.61h6c72.83,0,132.09,59.25,132.09,132.09v8a131.47,131.47,0,0,1-32.52,86.65l45.06,45A194.93,194.93,0,0,0,859.91,671.93Z"/><path class="cls-19" d="M763.78,758.58A131.79,131.79,0,0,1,664.21,804c-72.83,0-132.08-59.25-132.08-132.09V649.86H468.52v22.07c0,107.91,87.79,195.7,195.69,195.7a195.23,195.23,0,0,0,144.63-64Z"/><path class="cls-20" d="M345.61,296.43l-46,79.68a1.06,1.06,0,0,0,.93,1.59h92a1.06,1.06,0,0,0,.92-1.59l-46-79.68A1.07,1.07,0,0,0,345.61,296.43Z"/><rect class="cls-21" x="618.72" y="311.36" width="72.28" height="72.28"/><circle class="cls-21" cx="346.48" cy="655.09" r="43.6"/><line class="cls-21" x1="615.54" y1="618.15" x2="692.59" y2="695.2"/><line class="cls-21" x1="692.59" y1="618.15" x2="615.54" y2="695.2"/><path class="cls-22" d="M536.79,463.08V393.52a14.43,14.43,0,0,0-14.44-14.43H478a14.44,14.44,0,0,0-14.44,14.43v69.56H394a14.43,14.43,0,0,0-14.44,14.44v44.35A14.44,14.44,0,0,0,394,536.31h69.55v69.55A14.44,14.44,0,0,0,478,620.3h44.35a14.43,14.43,0,0,0,14.44-14.44V536.31h69.56a14.44,14.44,0,0,0,14.43-14.44V477.52a14.43,14.43,0,0,0-14.43-14.44Z"/><polygon class="cls-23" points="579.96 513.78 594.04 499.69 579.96 485.61 579.96 513.78"/><polygon class="cls-23" points="418.72 513.78 404.64 499.69 418.72 485.61 418.72 513.78"/><polygon class="cls-23" points="485.25 580.31 499.34 594.39 513.42 580.31 485.25 580.31"/><polygon class="cls-23" points="485.25 419.08 499.34 404.99 513.42 419.08 485.25 419.08"/></g></svg>