<svg id="Layer_1" data-name="Layer 1" xmlns="http://www.w3.org/2000/svg" xmlns:xlink="http://www.w3.org/1999/xlink" viewBox="0 0 1000 1000"><defs><style>.cls-1{fill:#64b8cb;}.cls-2{fill:#fff;}.cls-3,.cls-4{fill:#ffd11d;}.cls-3{fill-rule:evenodd;}.cls-5{fill:#b0b0b0;}.cls-6{fill:url(#linear-gradient);}.cls-7{fill:#161d21;}.cls-8{fill:#f76031;}</style><linearGradient id="linear-gradient" x1="537.67" y1="678.94" x2="537.67" y2="678.73" gradientUnits="userSpaceOnUse"><stop offset="0.02" stop-color="#5f6767"/><stop offset="0.48" stop-color="#676b6c"/><stop offset="0.51" stop-color="#717576"/><stop offset="0.62" stop-color="#878a8b"/><stop offset="0.72" stop-color="#949899"/><stop offset="0.81" stop-color="#999c9d"/></linearGradient></defs><title>LATEX</title><g id="Layer_4" data-name="Layer 4"><path class="cls-1" d="M1000,533.37V469.63C983.56,208.06,766.21,1,500.5,1,224.08,1,0,225.08,0,501.5,0,762.74,200.15,977.23,455.46,1000h90.08C790.39,978.16,984.5,780,1000,533.37Z"/></g><circle class="cls-2" cx="491.4" cy="514.55" r="308.23" transform="translate(-219.92 498.18) rotate(-45)"/><path class="cls-2" d="M91.75,519.36C90.49,410.25,133.49,301,219.65,221.21S418,106.86,526.69,116.45l2.91-2.69c-7.57-.72-15.18-1.25-22.83-1.54a400,400,0,0,0-289,107c-78.9,73.09-124.62,172.52-128.73,280-.29,7.66-.34,15.28-.21,22.88Z"/><path class="cls-2" d="M836.56,312.66l2.15-2a406.88,406.88,0,0,0-148.2-146.24l-2.25,2.08a400.39,400.39,0,0,1,148.3,146.16Z"/><path class="cls-2" d="M888,464.74C903.32,588.2,861.16,717.08,763.12,807.9,601.37,957.73,347.88,948,198.05,786.29a398.16,398.16,0,0,1-68.73-102l-2.26,2.08A404,404,0,0,0,196,788.16c73.09,78.91,172.52,124.62,280,128.73s210.11-33.88,289-107,124.61-172.52,128.72-280a406.44,406.44,0,0,0-3-67.71Z"/><path class="cls-2" d="M200.75,355.24a331,331,0,0,1,45-63.16C365.9,159.4,569.84,146.73,705.45,261.56l1.78-2a334.06,334.06,0,0,0-463.46,30.72,336.81,336.81,0,0,0-46.14,64.93Z"/><path class="cls-2" d="M160.67,495.45h-2.82a341.34,341.34,0,0,0-.12,35.63A331.7,331.7,0,0,0,259,754.52l1.78-2C189.19,683.26,155.39,588.62,160.67,495.45Z"/><path class="cls-2" d="M785.2,355.24q-5-9.27-10.68-18.24l-1.94,2.15q4.95,7.94,9.39,16.09Z"/><path class="cls-2" d="M824.91,495.45h-2.83a330.29,330.29,0,0,1-85,241.58C635.47,849.19,474,875.57,344.62,811.69l-1.94,2.15A334.19,334.19,0,0,0,825.06,498C825,497.17,825,496.31,824.91,495.45Z"/><path class="cls-2" d="M626.63,846.57c4.88-2,9.77-4.2,14.54-6.46L640,837.72c-4.73,2.24-9.59,4.39-14.43,6.41Z"/><path class="cls-2" d="M201.38,727.85l-2.12,1.57c3.15,4.24,6.44,8.46,9.77,12.53l2.05-1.67C207.77,736.23,204.51,732.05,201.38,727.85Z"/><path class="cls-2" d="M183.68,701.77l-2.25,1.39c2.76,4.48,5.66,9,8.62,13.33l2.19-1.49C189.3,710.67,186.42,706.22,183.68,701.77Z"/><path class="cls-2" d="M145.32,615.49l-2.54.75c1.49,5.07,3.11,10.17,4.81,15.16l2.5-.86C148.4,625.59,146.8,620.53,145.32,615.49Z"/><path class="cls-2" d="M243.35,774.86l-1.81,1.92c3.84,3.61,7.82,7.18,11.83,10.63l1.72-2C251.11,782,247.16,778.44,243.35,774.86Z"/><path class="cls-2" d="M168.36,674.22,166,675.4c2.36,4.72,4.86,9.45,7.42,14.07l2.31-1.29C173.18,683.6,170.7,678.9,168.36,674.22Z"/><path class="cls-2" d="M155.53,645.37l-2.46,1c1.93,4.91,4,9.85,6.14,14.67l2.41-1.07C159.5,655.15,157.45,650.25,155.53,645.37Z"/><path class="cls-2" d="M596.76,857.51c5-1.6,10.1-3.32,15.06-5.14l-.91-2.48C606,851.69,601,853.41,596,855Z"/><path class="cls-2" d="M534.38,868.65l.35,2.62c5.23-.69,10.52-1.5,15.72-2.41l-.46-2.61C544.83,867.16,539.58,868,534.38,868.65Z"/><path class="cls-2" d="M565.48,863.17l.57,2.58c5.15-1.14,10.35-2.41,15.45-3.78l-.69-2.55C575.76,860.77,570.6,862,565.48,863.17Z"/><path class="cls-2" d="M267.29,795.43l-1.63,2.08c4.15,3.26,8.43,6.47,12.72,9.55l1.54-2.15C275.66,801.86,271.42,798.66,267.29,795.43Z"/><path class="cls-2" d="M293,813.82,291.51,816c4.43,2.88,9,5.71,13.52,8.4l1.35-2.28C301.87,819.49,297.35,816.69,293,813.82Z"/><path class="cls-2" d="M358.56,847.52c-3.31-1.29-6.63-2.62-9.89-4l-1,2.43c3.72,1.59,7.52,3.1,11.31,4.56Z"/><path class="cls-2" d="M320.15,829.9l-1.24,2.33c4.66,2.49,9.44,4.9,14.21,7.18l1.14-2.39C329.53,834.76,324.78,832.37,320.15,829.9Z"/><path class="cls-2" d="M221.32,752.27l-2,1.76c3.51,3.93,7.16,7.85,10.84,11.62l1.9-1.85C228.43,760.06,224.81,756.17,221.32,752.27Z"/><path class="cls-2" d="M212,288.2l-2.05-1.68c-3.35,4.09-6.66,8.3-9.82,12.51l2.12,1.59C205.34,296.44,208.63,292.26,212,288.2Z"/><path class="cls-2" d="M254.37,241.16c-4,3.42-8,7-11.85,10.59l1.81,1.93c3.83-3.58,7.78-7.11,11.75-10.51Z"/><path class="cls-2" d="M231.15,262.85c-3.69,3.77-7.35,7.67-10.88,11.6l2,1.77c3.5-3.9,7.13-7.78,10.79-11.51Z"/><path class="cls-2" d="M277.13,223.25c-3.53,2.56-7,5.18-10.46,7.85l1.62,2.09c3-2.36,6.12-4.68,9.23-6.95Z"/><path class="cls-2" d="M425.28,163.29l-.47-2.61c-4.68.83-9.41,1.78-14.08,2.8l.35,2.63C415.78,165.08,420.55,164.13,425.28,163.29Z"/><path class="cls-2" d="M503.07,871.39l.34,2.63c5.16-.23,10.37-.57,15.51-1l-.23-2.63C513.52,870.82,508.26,871.16,503.07,871.39Z"/><path class="cls-2" d="M190.83,312c-3,4.36-5.9,8.84-8.69,13.33l2.25,1.4c2.77-4.46,5.67-8.91,8.62-13.24Z"/><path class="cls-2" d="M174.05,339c-2.58,4.6-5.1,9.32-7.48,14.05l2.36,1.19c2.37-4.69,4.87-9.38,7.43-13.95Z"/><path class="cls-2" d="M138.84,427.57c-1.28,5.13-2.47,10.36-3.52,15.55l2.59.53c1.05-5.15,2.23-10.35,3.5-15.44Z"/><path class="cls-2" d="M159.72,367.43c-2.17,4.82-4.26,9.76-6.22,14.67l2.46,1c1.94-4.87,4-9.77,6.17-14.55Z"/><path class="cls-2" d="M147.94,397c-1.73,5-3.38,10.1-4.89,15.16l2.54.76c1.5-5,3.13-10.1,4.85-15.06Z"/><path class="cls-2" d="M832.48,617.65c1.52-5.07,2.94-10.24,4.23-15.37l-2.56-.64c-1.28,5.08-2.7,10.22-4.2,15.26Z"/><path class="cls-2" d="M814.18,369.89l2.42-1.07c-2.14-4.82-4.41-9.66-6.77-14.39l-2.37,1.18C809.8,360.3,812.06,365.11,814.18,369.89Z"/><path class="cls-2" d="M764.82,289.5l2-1.67c-3.34-4.1-6.8-8.16-10.31-12.1l-2,1.76C758.07,281.4,761.51,285.44,764.82,289.5Z"/><path class="cls-2" d="M655.41,833c4.65-2.45,9.32-5,13.86-7.71L667.94,823c-4.51,2.64-9.14,5.22-13.77,7.65Z"/><path class="cls-2" d="M783.63,314.79l2.19-1.48c-3-4.37-6.05-8.72-9.19-12.95l-2.12,1.58C777.63,306.14,780.69,310.46,783.63,314.79Z"/><path class="cls-2" d="M488.89,157.74v-2.65c-5.27,0-10.62.1-15.9.32l.11,2.65C478.34,157.83,483.66,157.73,488.89,157.74Z"/><path class="cls-2" d="M440.88,160.88l.77-.11c5.21-.68,10.49-1.25,15.7-1.7l-.23-2.63c-5.24.45-10.56,1-15.82,1.71l-.76.1Z"/><path class="cls-2" d="M520.42,159.19l.24-2.64c-5.25-.47-10.59-.84-15.86-1.08l-.13,2.64C509.91,158.35,515.21,158.72,520.42,159.19Z"/><path class="cls-2" d="M612.65,180.24l.93-2.48c-5-1.86-10-3.63-15-5.25l-.82,2.51C602.7,176.64,607.72,178.39,612.65,180.24Z"/><path class="cls-2" d="M582.56,170.48l.7-2.55c-5.08-1.4-10.28-2.71-15.46-3.89l-.58,2.58C572.35,167.79,577.51,169.09,582.56,170.48Z"/><path class="cls-2" d="M551.71,163.44l.47-2.6c-5.2-1-10.49-1.79-15.71-2.5l-.36,2.63C541.3,161.67,546.55,162.5,551.71,163.44Z"/><path class="cls-2" d="M800.12,341.63l2.31-1.28c-2.56-4.61-5.25-9.22-8-13.71L792.17,328C794.9,332.48,797.57,337.05,800.12,341.63Z"/><path class="cls-2" d="M755.12,755.31c3.53-3.93,7-8,10.37-12.06l-2-1.68c-3.33,4-6.79,8.07-10.3,12Z"/><path class="cls-2" d="M775.32,730.75c3.17-4.21,6.29-8.56,9.28-12.92l-2.18-1.5c-3,4.33-6.07,8.65-9.21,12.83Z"/><path class="cls-2" d="M793.3,704.5c2.79-4.48,5.51-9.09,8.11-13.69l-2.31-1.3c-2.57,4.57-5.28,9.14-8.05,13.59Z"/><path class="cls-2" d="M682.8,817c4.42-2.86,8.84-5.85,13.14-8.91l-1.53-2.16c-4.28,3-8.66,6-13,8.85Z"/><path class="cls-2" d="M808.9,676.76c2.39-4.72,4.7-9.55,6.88-14.36l-2.42-1.09c-2.15,4.78-4.45,9.58-6.82,14.26Z"/><path class="cls-2" d="M708.67,798.61c4.16-3.24,8.3-6.61,12.32-10.05l-1.72-2c-4,3.41-8.1,6.76-12.22,10Z"/><path class="cls-2" d="M732.85,778c3.86-3.6,7.69-7.34,11.38-11.1L742.34,765c-3.66,3.73-7.46,7.44-11.3,11Z"/><path class="cls-2" d="M840.65,460.57l2.62-.4c-.8-5.24-1.73-10.51-2.75-15.66l-2.59.51C838.94,450.13,839.86,455.37,840.65,460.57Z"/><path class="cls-2" d="M822,647.74c2-4.91,3.84-9.93,5.58-14.93l-2.5-.86c-1.73,4.95-3.59,9.94-5.54,14.81Z"/><path class="cls-2" d="M825.68,399.3l2.51-.86c-1.71-5-3.55-10-5.47-14.94l-2.46,1C822.17,389.35,824,394.33,825.68,399.3Z"/><path class="cls-2" d="M834.52,429.6l2.57-.62c-1.25-5.12-2.64-10.3-4.11-15.37l-2.55.74C831.91,419.39,833.28,424.52,834.52,429.6Z"/><path class="cls-2" d="M846.71,491.79c-.33-5.24-.8-10.57-1.38-15.84l-2.62.28c.57,5.24,1,10.53,1.36,15.73Z"/><path class="cls-2" d="M840.25,586.74c1.06-5.18,2-10.44,2.84-15.66l-2.62-.41c-.81,5.17-1.76,10.4-2.81,15.54Z"/><path class="cls-2" d="M845.22,555.32c.59-5.24,1.07-10.57,1.43-15.84L844,539.3c-.36,5.23-.83,10.52-1.42,15.72Z"/><path class="cls-2" d="M847.38,523.58c.12-5.27.12-10.63,0-15.9l-2.65.06c.11,5.23.1,10.54,0,15.78Z"/><polygon class="cls-3" points="288.99 271.29 288.99 271.51 289 271.51 289 273.95 289 276.89 288.99 276.89 288.99 277.62 289 277.62 288.99 284.93 288.99 284.93 288.99 285.59 288.99 285.59 288.99 288.96 288.99 288.96 288.99 289.85 288.99 289.85 288.99 292.3 288.99 292.68 523.98 292.68 523.98 271.29 288.99 271.29"/><path class="cls-4" d="M525.71,294.41H287.25V269.56H525.71Zm-235-3.46H522.25V273H290.73Z"/><rect class="cls-2" x="494.03" y="271.29" width="29.96" height="21.38"/><path class="cls-4" d="M525.71,294.41H492.3V269.56h33.41Zm-30-3.46h26.49V273H495.76Z"/><rect class="cls-2" x="377.85" y="278.33" width="30.97" height="7.22"/><rect class="cls-2" x="340.84" y="278.33" width="30.96" height="7.22"/><rect class="cls-2" x="303.84" y="278.33" width="30.96" height="7.22"/><path class="cls-5" d="M148.51,694.32s-4.26,7.93,26,14.53h633s21.18-1.36,26.76-11.34l0-5.47Z"/><path class="cls-2" d="M148.66,678.31H834.54v17.61s1,2.36-7,1.77H155.12s-6.32,1.78-6.91-2.35Z"/><path class="cls-5" d="M802.68,688.61a1.13,1.13,0,0,1-1,1.22H778.33a1.13,1.13,0,0,1-1-1.22h0a1.14,1.14,0,0,1,1-1.25h23.33a1.14,1.14,0,0,1,1,1.25Z"/><path class="cls-5" d="M445,678.45s-2.64,8.82,6.17,9.7h79.57s8.46,1.1,7.33-9.4Z"/><path class="cls-6" d="M537.67,678.94v-.21h0A1.48,1.48,0,0,0,537.67,678.94Z"/><path class="cls-7" d="M767.1,678.24V365.62a25.86,25.86,0,0,0-25.79-25.8H241.49a25.87,25.87,0,0,0-25.79,25.8V678.24Z"/><rect class="cls-8" x="233.43" y="359.17" width="515.93" height="299.88"/><rect class="cls-8" x="106.03" y="214.29" width="39.92" height="439.11"/><path class="cls-2" d="M126,250.89a10,10,0,1,1,10-10A10,10,0,0,1,126,250.89Z"/><rect class="cls-2" x="109.96" y="436.79" width="20.43" height="4.78"/><rect class="cls-2" x="109.96" y="421.51" width="11.62" height="4.77"/><rect class="cls-2" x="109.96" y="406.22" width="11.62" height="4.77"/><rect class="cls-2" x="109.96" y="390.94" width="11.62" height="4.78"/><rect class="cls-2" x="109.96" y="376.57" width="20.43" height="4.78"/><rect class="cls-2" x="109.96" y="361.28" width="11.62" height="4.77"/><rect class="cls-2" x="109.96" y="346" width="11.62" height="4.78"/><rect class="cls-2" x="109.96" y="330.72" width="11.62" height="4.77"/><rect class="cls-2" x="109.96" y="316.35" width="20.43" height="4.77"/><rect class="cls-2" x="109.96" y="301.06" width="11.62" height="4.77"/><rect class="cls-2" x="109.96" y="285.77" width="11.62" height="4.77"/><rect class="cls-2" x="109.96" y="270.49" width="11.62" height="4.77"/><rect class="cls-2" x="109.96" y="618.7" width="20.43" height="4.77"/><rect class="cls-2" x="109.96" y="603.41" width="11.62" height="4.77"/><rect class="cls-2" x="109.96" y="588.13" width="11.62" height="4.77"/><rect class="cls-2" x="109.96" y="572.84" width="11.62" height="4.78"/><rect class="cls-2" x="109.96" y="558.47" width="20.43" height="4.77"/><rect class="cls-2" x="109.96" y="543.19" width="11.62" height="4.77"/><rect class="cls-2" x="109.96" y="527.9" width="11.62" height="4.78"/><rect class="cls-2" x="109.96" y="512.62" width="11.62" height="4.77"/><rect class="cls-2" x="109.96" y="498.25" width="20.43" height="4.78"/><rect class="cls-2" x="109.96" y="482.97" width="11.62" height="4.77"/><rect class="cls-2" x="109.96" y="467.68" width="11.62" height="4.77"/><rect class="cls-2" x="109.96" y="452.39" width="11.62" height="4.78"/><path class="cls-8" d="M199.74,635.78a1,1,0,0,1,1.07,1V652.4a1,1,0,0,1-1.07,1H169a1,1,0,0,1-1.08-1V636.78a1,1,0,0,1,1.08-1Z"/><path class="cls-2" d="M167.94,631.12v5.63h32.87v-5.63a1,1,0,0,0-1.07-1H169A1,1,0,0,0,167.94,631.12Z"/><polygon class="cls-4" points="167.94 384.55 167.94 397 167.94 560.85 167.94 587.89 167.94 630.62 200.81 630.62 200.81 587.89 200.81 560.85 200.81 397 200.81 384.55 200.81 330.3 167.94 330.3 167.94 384.55"/><polygon class="cls-7" points="179.97 384.55 179.97 397 179.97 560.85 179.97 587.89 179.97 630.62 188.78 630.62 188.78 587.89 188.78 560.85 188.78 397 188.78 384.55 188.78 330.3 179.97 330.3 179.97 384.55"/><polygon class="cls-2" points="200.9 330.44 184.38 338.86 167.85 330.45 184.38 291.96 200.9 330.44"/><polygon class="cls-7" points="177.48 308.01 191.26 308.01 184.38 291.96 177.48 308.01"/><rect class="cls-2" x="789.93" y="745.12" width="45.62" height="4.97"/><rect class="cls-2" x="789.93" y="761.05" width="45.62" height="4.98"/><rect class="cls-2" x="789.93" y="776.98" width="45.62" height="4.97"/><rect class="cls-2" x="846.47" y="776.98" width="18.13" height="4.97"/><rect class="cls-2" x="846.47" y="761.05" width="18.13" height="4.98"/><rect class="cls-2" x="846.47" y="745.12" width="18.13" height="4.97"/><rect class="cls-7" x="186.49" y="767.17" width="132.93" height="9.97" transform="translate(-558.13 723.58) rotate(-68.43)"/><rect class="cls-7" x="216.19" y="830.86" width="26.49" height="1.99" transform="translate(-628.52 739.47) rotate(-68.43)"/><rect class="cls-7" x="346.46" y="818.74" width="1.99" height="26.49" transform="translate(-302.2 206.79) rotate(-23.43)"/><rect class="cls-7" x="316.65" y="705.02" width="9.97" height="132.93" transform="translate(-280.28 191.54) rotate(-23.43)"/><path class="cls-8" d="M314.47,692.67a28,28,0,1,1-28-28,28,28,0,0,1,28,28Zm0,0"/><path class="cls-2" d="M295.64,692.67a9.18,9.18,0,1,1-9.18-9.18,9.18,9.18,0,0,1,9.18,9.18Zm0,0"/><rect class="cls-7" x="280.53" y="646.86" width="11.85" height="16.15"/><rect class="cls-7" x="223.32" y="777.57" width="126.28" height="4.43"/><rect class="cls-7" x="280.23" y="769.27" width="12.46" height="21.04"/><rect class="cls-2" x="370.87" y="862.52" width="8.2" height="8.19"/><rect class="cls-2" x="436.89" y="862.48" width="8.2" height="8.19"/><rect class="cls-2" x="370.84" y="928.34" width="8.2" height="8.2"/><rect class="cls-2" x="436.77" y="928.33" width="8.2" height="8.19"/><rect class="cls-2" x="439.02" y="930.57" width="3.91" height="3.91"/><path class="cls-2" d="M434.88,934.48h-4.14v-3.91h4.14Zm-8.27,0h-4.13v-3.91h4.13Zm-8.27,0H414.2v-3.91h4.14Zm-8.27,0h-4.14v-3.91h4.14Zm-8.28,0h-4.13v-3.91h4.13Zm-8.27,0h-4.14v-3.91h4.14Zm-8.27,0h-4.14v-3.91h4.14Z"/><rect class="cls-2" x="373.07" y="930.57" width="3.91" height="3.91"/><path class="cls-2" d="M377,926.43h-3.91V922.3H377Zm0-8.27h-3.91V914H377Zm0-8.27h-3.91v-4.14H377Zm0-8.27h-3.91v-4.14H377Zm0-8.28h-3.91V889.2H377Zm0-8.27h-3.91v-4.14H377Zm0-8.27h-3.91v-4.14H377Z"/><rect class="cls-2" x="373.07" y="864.62" width="3.91" height="3.91"/><path class="cls-2" d="M434.88,868.52h-4.13v-3.9h4.13Zm-8.27,0h-4.13v-3.9h4.13Zm-8.27,0h-4.13v-3.9h4.13Zm-8.27,0h-4.14v-3.9h4.14Zm-8.28,0h-4.13v-3.9h4.13Zm-8.27,0h-4.14v-3.9h4.14Zm-8.27,0h-4.13v-3.9h4.13Z"/><rect class="cls-2" x="439.02" y="864.62" width="3.91" height="3.91"/><path class="cls-2" d="M442.93,926.43H439V922.3h3.91Zm0-8.27H439V914h3.91Zm0-8.27H439v-4.14h3.91Zm0-8.28H439v-4.13h3.91Zm0-8.27H439V889.2h3.91Zm0-8.27H439v-4.14h3.91Zm0-8.27H439v-4.14h3.91Z"/><rect class="cls-2" x="391.9" y="883.72" width="32.21" height="32.21"/><path class="cls-8" d="M524.89,509.93a34,34,0,1,1-34-34A34,34,0,0,1,524.89,509.93Z"/><path class="cls-7" d="M546.83,498.11a56.87,56.87,0,0,0-9.62-21.7l6.83-7.17-15.13-14.4L522.09,462a56.91,56.91,0,0,0-22.15-8.54l-.25-9.88-20.87.49.25,9.9a54.73,54.73,0,0,0-6.16,1.66,57.15,57.15,0,0,0-15.55,8l-7.17-6.82-14.41,15.12,7.18,6.83a56.61,56.61,0,0,0-8.55,22.14l-9.9.24L425,522l9.9-.25a56.74,56.74,0,0,0,9.61,21.71l-6.82,7.17L452.83,565l6.84-7.16a56.76,56.76,0,0,0,22.15,8.52l.24,9.92,20.87-.52-.24-9.9a59.31,59.31,0,0,0,6.16-1.65,57.1,57.1,0,0,0,15.56-8l7.16,6.83L546,548l-7.17-6.83A57.07,57.07,0,0,0,547.35,519l9.89-.23-.51-20.88Zm-26.16,11.08a29.83,29.83,0,1,1-30.52-29.05A29.81,29.81,0,0,1,520.67,509.19Z"/><polygon class="cls-7" points="484.6 520.81 478.32 509.93 484.6 499.06 497.15 499.06 503.43 509.93 497.15 520.81 484.6 520.81"/><path class="cls-7" d="M599.33,511.27V498.14c-2.46.18-7.77,0-10.64-2.54a7,7,0,0,1-2.14-5.52c0-10.41,0-22,0-33.28,0-10.85,0-21.47,0-30.64a11.15,11.15,0,0,0-4-8.91c-6-4.95-16.54-3.07-17.72-2.84l1.58,8.09c2.42-.47,8.52-.84,10.89,1.11a2.91,2.91,0,0,1,1,2.55c0,9.16,0,19.78,0,30.62,0,11.32,0,22.88,0,33.33a15.15,15.15,0,0,0,5,11.69,17.15,17.15,0,0,0,5.58,3.2,16.73,16.73,0,0,0-5.53,3.44,12.44,12.44,0,0,0-3.81,9.15c0,9.17,0,19.79,0,30.64,0,11.32,0,22.88,0,33.26,0,3.37-1.35,4.39-1.78,4.72-2.9,2.2-9.07,1.21-11,.69l-2.2,7.94a30.52,30.52,0,0,0,7.61,1c3.43,0,7.4-.66,10.54-3,2.3-1.73,5-5.09,5.07-11.27,0-10.42,0-22,0-33.31,0-10.84,0-21.45,0-30.62a4.16,4.16,0,0,1,1.29-3.22C591.47,512,596.68,511.35,599.33,511.27Z"/><path class="cls-7" d="M382.42,511.27V498.14c2.46.18,7.77,0,10.64-2.54a7,7,0,0,0,2.14-5.52c0-10.41,0-22,0-33.28,0-10.85,0-21.47,0-30.64a11.12,11.12,0,0,1,4-8.91c6-4.95,16.54-3.07,17.71-2.84l-1.57,8.09c-2.42-.47-8.52-.84-10.89,1.11a2.91,2.91,0,0,0-1,2.55c0,9.16,0,19.78,0,30.62,0,11.32,0,22.88,0,33.33a15.15,15.15,0,0,1-5,11.69,17.15,17.15,0,0,1-5.58,3.2,16.73,16.73,0,0,1,5.53,3.44,12.44,12.44,0,0,1,3.81,9.15c0,9.17,0,19.79,0,30.64,0,11.32,0,22.88,0,33.26,0,3.37,1.35,4.39,1.78,4.72,2.9,2.2,9.07,1.21,11,.69l2.2,7.94a30.41,30.41,0,0,1-7.6,1c-3.44,0-7.41-.66-10.55-3-2.29-1.73-5-5.09-5.07-11.27,0-10.42,0-22,0-33.31,0-10.84,0-21.45,0-30.62a4.16,4.16,0,0,0-1.29-3.22C390.29,512,385.06,511.35,382.42,511.27Z"/><rect class="cls-2" x="626.85" y="126.72" width="5.56" height="5.56"/><rect class="cls-2" x="638.54" y="126.72" width="5.56" height="5.56"/><rect class="cls-2" x="650.23" y="126.72" width="5.56" height="5.56"/><path class="cls-2" d="M674.38,131.9V127c-.92.07-2.91,0-4-.95a2.57,2.57,0,0,1-.8-2.06c0-3.9,0-8.23,0-12.46,0-4.06,0-8,0-11.46a4.14,4.14,0,0,0-1.5-3.33c-2.24-1.85-6.18-1.15-6.62-1.07l.59,3c.9-.17,3.18-.31,4.07.42a1.09,1.09,0,0,1,.37,1c0,3.43,0,7.4,0,11.46,0,4.23,0,8.56,0,12.46a5.66,5.66,0,0,0,1.86,4.38,6.44,6.44,0,0,0,2.08,1.2,6.08,6.08,0,0,0-2.06,1.28,4.65,4.65,0,0,0-1.43,3.43c0,3.43,0,7.4,0,11.46,0,4.23,0,8.56,0,12.44,0,1.27-.5,1.64-.66,1.77-1.09.82-3.4.45-4.12.26l-.82,3a11.57,11.57,0,0,0,2.84.37,6.51,6.51,0,0,0,3.95-1.14,5,5,0,0,0,1.9-4.22c0-3.89,0-8.22,0-12.46,0-4.05,0-8,0-11.45a1.55,1.55,0,0,1,.48-1.21C671.44,132.18,673.39,131.93,674.38,131.9Z"/><path class="cls-2" d="M608.27,131.9V127a6,6,0,0,0,4-.95,2.64,2.64,0,0,0,.8-2.06c0-3.9,0-8.23,0-12.46,0-4.06,0-8,0-11.46a4.16,4.16,0,0,1,1.49-3.33c2.25-1.85,6.18-1.15,6.63-1.07l-.59,3c-.91-.17-3.19-.31-4.08.42a1.09,1.09,0,0,0-.37,1c0,3.43,0,7.4,0,11.46,0,4.23,0,8.56,0,12.46a5.68,5.68,0,0,1-1.85,4.38,6.48,6.48,0,0,1-2.09,1.2,6.13,6.13,0,0,1,2.07,1.28,4.68,4.68,0,0,1,1.42,3.43c0,3.43,0,7.4,0,11.46,0,4.23,0,8.56,0,12.44,0,1.27.51,1.64.67,1.77,1.09.82,3.39.45,4.11.26l.82,3a11.48,11.48,0,0,1-2.84.37,6.54,6.54,0,0,1-3.95-1.14,5,5,0,0,1-1.89-4.22c0-3.89,0-8.22,0-12.46,0-4.05,0-8,0-11.45a1.56,1.56,0,0,0-.49-1.21C611.21,132.18,609.25,131.93,608.27,131.9Z"/><rect class="cls-7" x="684.31" y="244.15" width="226.92" height="304.17"/><rect class="cls-2" x="684.31" y="257.8" width="226.92" height="25.79"/><rect class="cls-7" x="684.31" y="244.15" width="226.92" height="22.55"/><rect class="cls-2" x="738.9" y="253.24" width="48.93" height="5.34"/><rect class="cls-2" x="799.54" y="253.24" width="48.92" height="5.34"/><rect class="cls-7" x="738.9" y="273.07" width="48.93" height="5.34"/><rect class="cls-2" x="784.79" y="318.84" width="49" height="5.33"/><rect class="cls-2" x="805.92" y="335.92" width="5.01" height="5.33"/><rect class="cls-2" x="815.19" y="335.92" width="5.02" height="5.33"/><rect class="cls-2" x="824.7" y="335.92" width="5.01" height="5.33"/><rect class="cls-8" x="794.09" y="353" width="39.7" height="5.34"/><rect class="cls-2" x="805.92" y="370.08" width="27.87" height="5.34"/><rect class="cls-4" x="840.47" y="370.08" width="49" height="5.34"/><rect class="cls-2" x="840.47" y="353" width="15.56" height="5.34"/><rect class="cls-2" x="868.9" y="353" width="15.56" height="5.34"/><rect class="cls-2" x="840.47" y="335.92" width="27.87" height="5.33"/><rect class="cls-2" x="784.79" y="392.65" width="25.21" height="5.33"/><rect class="cls-2" x="801.87" y="409.73" width="9.86" height="5.34"/><rect class="cls-4" x="793.87" y="426.82" width="9.69" height="5.33"/><rect class="cls-2" x="795.66" y="443.9" width="14.34" height="5.33"/><rect class="cls-2" x="813.44" y="443.9" width="25.21" height="5.33"/><rect class="cls-4" x="813.44" y="426.82" width="14.34" height="5.33"/><rect class="cls-2" x="817.67" y="409.73" width="14.34" height="5.34"/><rect class="cls-2" x="856.29" y="443.9" width="25.21" height="5.33"/><rect class="cls-2" x="856.29" y="426.82" width="14.34" height="5.33"/><rect class="cls-2" x="856.29" y="409.73" width="14.34" height="5.34"/><rect class="cls-2" x="856.29" y="392.65" width="14.34" height="5.33"/><rect class="cls-2" x="827.64" y="392.65" width="25.21" height="5.33"/><rect class="cls-8" x="838.51" y="409.73" width="14.34" height="5.34"/><rect class="cls-2" x="838.51" y="426.82" width="14.34" height="5.33"/><rect class="cls-2" x="784.79" y="466.46" width="49" height="5.34"/><rect class="cls-2" x="805.92" y="483.54" width="27.87" height="5.34"/><rect class="cls-2" x="796.84" y="500.62" width="19.9" height="5.34"/><rect class="cls-2" x="805.92" y="517.7" width="27.87" height="5.34"/><rect class="cls-2" x="840.47" y="517.7" width="49" height="5.34"/><rect class="cls-2" x="824.58" y="500.62" width="27.87" height="5.34"/><rect class="cls-4" x="840.47" y="483.54" width="27.87" height="5.34"/><rect class="cls-2" x="706.07" y="318.84" width="43.31" height="5.33"/><rect class="cls-2" x="724.75" y="335.92" width="4.43" height="5.33"/><rect class="cls-2" x="732.94" y="335.92" width="4.43" height="5.33"/><rect class="cls-2" x="741.34" y="335.92" width="4.43" height="5.33"/><rect class="cls-4" x="714.28" y="353" width="35.09" height="5.34"/><rect class="cls-2" x="724.75" y="370.08" width="24.63" height="5.34"/><rect class="cls-8" x="755.28" y="370.08" width="43.31" height="5.34"/><rect class="cls-2" x="755.28" y="353" width="13.75" height="5.34"/><rect class="cls-2" x="755.28" y="335.92" width="24.63" height="5.33"/><rect class="cls-2" x="706.07" y="392.65" width="22.28" height="5.33"/><rect class="cls-2" x="721.17" y="409.73" width="8.71" height="5.34"/><rect class="cls-4" x="714.09" y="426.82" width="8.57" height="5.33"/><rect class="cls-2" x="715.68" y="443.9" width="12.67" height="5.33"/><rect class="cls-2" x="731.39" y="443.9" width="22.28" height="5.33"/><rect class="cls-4" x="731.39" y="426.82" width="12.67" height="5.33"/><rect class="cls-2" x="735.13" y="409.73" width="12.67" height="5.34"/><rect class="cls-2" x="769.25" y="443.9" width="22.28" height="5.33"/><rect class="cls-2" x="769.25" y="426.82" width="12.67" height="5.33"/><rect class="cls-2" x="769.25" y="409.73" width="12.67" height="5.34"/><rect class="cls-2" x="769.25" y="392.65" width="12.67" height="5.33"/><rect class="cls-2" x="743.94" y="392.65" width="22.28" height="5.33"/><rect class="cls-4" x="753.55" y="409.73" width="12.67" height="5.34"/><rect class="cls-2" x="753.55" y="426.82" width="12.67" height="5.33"/><rect class="cls-2" x="706.07" y="466.46" width="43.31" height="5.34"/><rect class="cls-2" x="724.75" y="483.54" width="24.63" height="5.34"/><rect class="cls-2" x="716.72" y="500.62" width="17.59" height="5.34"/><rect class="cls-2" x="724.75" y="517.7" width="24.63" height="5.34"/><rect class="cls-2" x="755.28" y="517.7" width="43.31" height="5.34"/><rect class="cls-8" x="741.24" y="500.62" width="24.63" height="5.34"/><rect class="cls-4" x="755.28" y="483.54" width="24.63" height="5.34"/></svg>